<svg xmlns="http://www.w3.org/2000/svg" xmlns:xlink="http://www.w3.org/1999/xlink" width="2161" height="1077" viewBox="0 0 2161 1077">
  <defs>
    <clipPath id="clip-path">
      <rect id="Rectangle_220" data-name="Rectangle 220" width="1054.553" height="1336.462" fill="none"/>
    </clipPath>
    <clipPath id="clip-BRAINSTORM_21">
      <rect width="2161" height="1077"/>
    </clipPath>
  </defs>
  <g id="BRAINSTORM_21" data-name="BRAINSTORM – 21" clip-path="url(#clip-BRAINSTORM_21)">
    <g id="Group_25320" data-name="Group 25320" transform="matrix(0.94, 0.342, -0.342, 0.94, 1615.776, -299.525)">
      <g id="Group_275" data-name="Group 275" transform="translate(0 -0.002)">
        <g id="Group_274" data-name="Group 274" clip-path="url(#clip-path)">
          <path id="Path_247" data-name="Path 247" d="M775.815,19.9c-54.048,8.247-105.027,26.441-148.034,57.379-40.575,29.188-72.532,67.152-96.129,108.559-10.975,19.26-22.7,39.386-28.5,60.519-6.363,23.18-5.805,47.686.59,70.808a151.893,151.893,0,0,0,35.905,63.107c18.789,20.022,43.331,34.03,70.652,42.763,31.668,10.122,65.5,13.116,98.686,16.5,33.278,3.388,66.519,7.629,98.848,15.706,59.042,14.751,116.379,44.644,144.22,95.806,29.948,55.034,5.643,115.585-30.524,162.879-19.764,25.844-43.1,49.225-65.176,73.449-20.679,22.7-40.158,46.333-56.249,71.908-29.733,47.256-50.242,104.469-34.917,158.7,12.89,45.616,46.538,90.306,92.742,113.506a139.089,139.089,0,0,0,34.468,12.054c10.75,2.194,15.339-12.684,4.561-14.883-49.875-10.176-87.758-50.559-106.642-91.519-9.881-21.431-14.632-44.005-12.869-67.18,2.14-28.127,11.538-55.687,24.882-81.091,13.806-26.282,31.605-50.8,51.274-73.812,20.669-24.182,43.546-46.76,64.331-70.861,39.806-46.154,74.038-102.461,62.855-162.9-9.508-51.392-52.973-93.581-102.607-117.617C818.558,434.8,751.5,428.973,685.5,421.654c-32.063-3.556-65.028-8.691-93.73-22.716a136.376,136.376,0,0,1-53.345-46.471c-13.162-19.6-21.138-42.156-22.451-65.05-1.235-21.544,3.8-41.891,13.364-61.552a501.356,501.356,0,0,1,33.145-58.529c13.122-19.711,29.753-37.984,47.457-54.492,36.129-33.686,80.594-57.6,130.719-70.184,13.068-3.281,26.339-5.834,39.714-7.876,10.861-1.658,6.256-16.534-4.561-14.883" transform="translate(71.619 0.575)" fill="#2d483a"/>
          <path id="Path_248" data-name="Path 248" d="M576.37,83.092c-57.848,8.815-109.881,35.7-153.382,70.419-41.132,32.831-76.562,72.27-101.652,116.33-10.616,18.642-21.822,38.037-28.111,58.3-6.877,22.154-7.026,45.757-1.65,68.182,11.24,46.873,46.3,86.888,95.727,105.343,30.134,11.252,62.776,15.166,94.94,18.6,33.915,3.625,67.806,7.371,100.967,14.958,61.067,13.973,120.658,42.257,153.249,92.736,15.664,24.259,22.575,51.766,19.731,79.735-3.18,31.263-17.277,61.045-35.563,87.483-35.689,51.6-86.028,93.4-121.282,145.375-31.322,46.174-54,101.1-45.588,155.944,6.952,45.295,34.568,90.893,79.736,113.892a135.4,135.4,0,0,0,33.823,11.816c3.581.747,5.11-4.213,1.521-4.961-52.8-11.007-89.43-52.781-103.915-98.066-17.026-53.226-1.041-109.108,27.168-156.827,15.193-25.7,33.884-49.573,54.1-72.25,20.941-23.486,43.215-46.027,62.9-70.409,36.573-45.307,65.445-102.569,48.57-159.432-14.614-49.25-58.833-87.515-108.634-109.287-28.917-12.641-60-20.656-91.482-26.157-32.583-5.693-65.607-8.146-98.427-12.358-31.49-4.041-63.494-10.265-91.068-25.168a143.706,143.706,0,0,1-54.011-51.462,137.585,137.585,0,0,1-20.494-67.167c-.7-22.476,5.46-43.266,15.437-63.667,9.793-20.027,20.6-39.945,33.257-58.648,14.333-21.184,32.351-40.858,50.927-59.119,39.55-38.881,87.675-72.5,143.56-89.78a284.312,284.312,0,0,1,41.169-9.4c3.621-.552,2.086-5.51-1.52-4.961" transform="translate(41.332 2.409)" fill="#657154"/>
          <path id="Path_249" data-name="Path 249" d="M301.547,182.534C240.92,191.8,186.384,222.286,140.77,258.29,98.139,291.939,60.477,331.738,34.425,377.2,23.712,395.889,12.483,415.312,5.9,435.582c-7.143,22-7.579,45.514-2.51,67.913,10.641,47.016,45.389,87.72,94.734,106.533,29.723,11.332,61.962,15.419,93.783,18.854,34.011,3.672,68.011,7.278,101.317,14.733,61.091,13.674,120.732,41.307,154.143,91.245,16.241,24.274,23.745,51.981,21.179,80.265-2.821,31.1-16.538,60.822-34.511,87.209-35.809,52.57-87.13,94.839-122.8,147.6-31.185,46.119-53.694,100.946-45.227,155.658,6.989,45.165,34.509,90.521,79.457,113.563a135.113,135.113,0,0,0,34.071,11.942c3.581.747,5.109-4.213,1.52-4.961-52.948-11.042-89.632-53.009-104.039-98.448-16.859-53.166-.818-108.985,27.386-156.606,15.208-25.678,33.89-49.53,54.1-72.194,20.806-23.327,42.92-45.726,62.5-69.926,36.771-45.455,65.812-102.866,48.83-159.963-14.652-49.256-58.976-87.464-108.782-109.217-29.654-12.952-61.6-21.026-93.9-26.523-32.339-5.5-65.1-7.884-97.637-12.145-32-4.192-64.6-10.792-92.231-26.591A143.788,143.788,0,0,1,25.1,542.8,137.008,137.008,0,0,1,5.7,474.811c-.21-22.167,6.377-42.486,16.29-62.549,9.855-19.944,20.618-39.865,33.417-58.432,15.033-21.808,33.978-41.923,53.46-60.593,42.345-40.581,93.548-76.8,152.284-95.8a267.673,267.673,0,0,1,41.915-9.947c3.62-.554,2.084-5.512-1.521-4.961" transform="translate(0 5.291)" fill="#657154"/>
          <path id="Path_250" data-name="Path 250" d="M725.88.13C673.182,8.3,624.953,37.6,583.425,66.4c-46.614,32.326-89.757,69.416-127.158,110.331-15.113,16.534-28.812,33.575-40.184,52.4-12.461,20.627-25.14,42.209-33.2,64.614-17.974,49.962-1.539,107.335,37.147,145.9,48.265,48.118,121.669,50.453,188.25,58.189,68.344,7.94,140.333,23.861,189.865,69.907,21.768,20.236,37.963,45.472,43.113,73.469,5.875,31.93-3.824,64.93-19.5,93.5-32.663,59.535-90.31,104.1-130.306,159.335-35.524,49.059-63.639,109.934-51.821,169.508,9.846,49.626,44.558,100.041,93.337,125.911a134.284,134.284,0,0,0,35.832,13c10.749,2.2,15.338-12.677,4.561-14.883-53.357-10.922-92.289-57.436-109.46-101.814a138.908,138.908,0,0,1-7.584-75.083c5.312-30.9,18.384-60.194,35.391-87.316,17.165-27.374,38.238-52.362,60.529-76.482,23.451-25.376,47.786-50.3,67.691-78.107,19.285-26.942,34.074-57.1,38.662-89.073A128.837,128.837,0,0,0,841.8,595.47c-31.2-53.292-92.381-84.624-155.088-99.863-34.673-8.425-70.325-12.5-105.938-16.123-34.683-3.527-70.731-7.093-102.753-20.467-51.773-21.624-84.66-70.477-85.213-121.553-.258-23.979,8.02-45.353,19.16-66.775,10.621-20.423,21.857-41.217,36.421-59.641,31.366-39.676,70.289-75.111,110.982-107.036,41.049-32.2,87.136-63.807,138.679-80.984a199.012,199.012,0,0,1,32.391-8.016C741.3,13.328,736.695-1.548,725.88.13" transform="translate(53.946 0.002)" fill="#2d483a"/>
        </g>
      </g>
      <g id="Group_277" data-name="Group 277" transform="translate(0 -0.002)">
        <g id="Group_276" data-name="Group 276" clip-path="url(#clip-path)">
          <path id="Path_251" data-name="Path 251" d="M365.382,148.718c-58.419,9.058-108.838,40.7-150.259,77.531-21.6,19.206-41.129,40.187-59.5,61.918-15.495,18.33-29.971,36.9-42.008,57.239-11.2,18.925-22.473,38.524-30.144,58.878-8.7,23.089-9.749,48.109-4.865,71.984,9.835,48.077,45.275,90.58,95.369,110.091,31.2,12.153,64.968,16.38,98.487,19.864,33.44,3.477,66.843,6.917,99.61,14.1,59.822,13.109,118.9,39.727,151.142,89.013,15.411,23.562,21.89,50.142,18.887,77.362-3.342,30.289-17.7,59.1-35.651,84.558-36.471,51.738-87.436,93.64-122.85,146.167-31.772,47.125-55.354,104.535-43.677,160.269,9.85,47.012,43.184,93.343,90.2,116.759a143.035,143.035,0,0,0,35.068,12.152c10.749,2.195,15.338-12.683,4.56-14.883-50.736-10.356-88.927-50.883-105.849-93.582-20.287-51.188-5.428-105.709,21.719-152.532,14.762-25.462,33.031-49.2,52.976-71.577,21.528-24.155,44.582-47.2,65.1-72.081,38.14-46.26,68.449-104.838,51.545-163.464-14.557-50.491-60.054-89.776-111.1-111.8-30.409-13.117-63.063-21.274-96.157-26.7-32.3-5.291-64.991-7.512-97.454-11.687-31.332-4.031-63.3-10.339-90.326-25.848a136.374,136.374,0,0,1-50.211-50.725,128.391,128.391,0,0,1-17.178-65.511c.342-21.649,7.782-41.23,17.748-60.664,9.929-19.36,20.511-38.948,33.557-56.793a622.3,622.3,0,0,1,50.507-59.849C231.654,229.8,275.9,192.251,330.031,173.5a229.209,229.209,0,0,1,39.911-9.9c10.858-1.683,6.255-16.56-4.561-14.883" transform="translate(10.873 4.308)" fill="#2d483a"/>
          <path id="Path_252" data-name="Path 252" d="M598.051,1241.807c-50.387-10.264-91.656-48.255-113.247-89.2a115.427,115.427,0,0,1-13.318-65.771c2.5-26.95,11.823-53.42,24.707-77.752,13.427-25.359,30.568-49.039,49.465-71.354,20.015-23.635,42.3-45.628,62.69-69,39.939-45.78,75.837-101.489,67.15-162-7.4-51.547-47.081-94.525-95.517-120.681C522.918,555.233,456,547.056,391.094,540.414c-31.118-3.185-62.923-6.773-92.125-17.54-23.484-8.66-44.281-22.818-59.288-41.3C210.849,446.051,200.872,398.648,218.19,357c16.41-39.47,41.607-77.73,71.578-110.663,30.07-33.042,66.312-59.257,104.265-84.556,11.791-7.858,23.6-15.694,35.345-23.606,4.936-3.326,7.472-8.9,4.1-14.079-2.845-4.378-10.673-7.042-15.647-3.692-41.23,27.773-84.6,53.974-120.572,87.407-19.238,17.879-36.3,37.592-52.189,57.931-13.637,17.453-24.373,36.823-34.543,56.046-10.527,19.9-19.785,39.645-22.724,61.7-3.1,23.24.388,47.414,9.3,69.376a155.913,155.913,0,0,0,42.576,59.661c21.7,18.666,48.832,30.511,77.651,37.471,31.866,7.7,64.98,9.9,97.62,13.465,32.749,3.583,65.491,8.705,96.962,17.778C566.9,597.09,620.043,628.432,643.44,677.8c25.84,54.518-.663,112.8-36.182,158.154C587.638,861,564.78,883.8,543.283,907.527c-20.713,22.857-40.179,46.715-56.135,72.526-28.522,46.138-50.222,104.028-33.331,156.7,15.054,46.947,54.147,90.378,102.429,112.9a160.781,160.781,0,0,0,35.725,12c14.334,2.919,20.454-16.917,6.081-19.845" transform="translate(26.814 3.448)" fill="#657154"/>
        </g>
      </g>
    </g>
  </g>
</svg>
